<?xml version="1.0" encoding="utf-8"?>
<!-- Generator: Adobe Illustrator 18.0.0, SVG Export Plug-In . SVG Version: 6.00 Build 0)  -->
<!DOCTYPE svg PUBLIC "-//W3C//DTD SVG 1.1//EN" "http://www.w3.org/Graphics/SVG/1.1/DTD/svg11.dtd">
<svg version="1.1" id="Layer_1" xmlns="http://www.w3.org/2000/svg" xmlns:xlink="http://www.w3.org/1999/xlink" x="0px" y="0px"
	 viewBox="0 0 422 109" enable-background="new 0 0 422 109" xml:space="preserve">
<rect x="13.7" y="4.5" fill="#FFFFFF" width="394.6" height="100"/>
<rect x="27.7" y="20.4" fill="#1D1D1B" width="150" height="68.9"/>
<text transform="matrix(1 0 0 1 40.9111 71.7363)"><tspan x="0" y="0" fill="#FFFFFF" font-family="'Helvetica-Bold'" font-size="58.9816" letter-spacing="-2">H</tspan><tspan x="40.2" y="0" fill="#FFFFFF" font-family="'Helvetica-Bold'" font-size="58.9816" letter-spacing="-2">ow</tspan><tspan x="117.5" y="0" fill="#FFFFFF" font-family="'Helvetica-Bold'" font-size="58.9816"> </tspan></text>
<rect x="249.9" y="20.4" fill="#1D1D1B" width="143.8" height="68.9"/>
<text transform="matrix(1 0 0 1 265.5469 71.7363)"><tspan x="0" y="0" fill="#FFFFFF" font-family="'Helvetica-Bold'" font-size="58.9816" letter-spacing="-2">s</tspan><tspan x="30.4" y="0" fill="#FFFFFF" font-family="'Helvetica-Bold'" font-size="58.9816" letter-spacing="-2">ig</tspan><tspan x="78.3" y="0" fill="#FFFFFF" font-family="'Helvetica-Bold'" font-size="58.9816">n</tspan></text>
<polygon fill="#1D1D1B" points="207.9,20.4 207.9,55.8 209.1,55.8 219.4,20.4 231.5,24 222.2,55.8 232.2,55.8 232.2,89.4 
	195.3,89.4 195.3,71 195.3,55.8 195.3,20.4 "/>
</svg>
